# xmcd
#
# Track frame offsets:
#	150
#	10698
#	21005
#	32045
#	43220
#	55406
#	69361
#	80530
#	96207
#	114519
#	124869
#	137635
#	149552
#	161383
#	180479
#	193348
#	207260
#	218758
#	232435
#	245009
#	258515
#	268050
#	281437
#	292766
#	309685
#
# Disc length: 4283
#
# Revision: 3
# Processed by: cddbd v1.5.1PL0 Copyright (c) Steve Scherf et al.
# Submitted via: EasyCDDAExtractor 6.2.0.3
# Normalized: r2:DSETVAR1
#
DISCID=7b10b919
DTITLE=Various Artist - Chess Blues Disc 4 1960-1967
DYEAR=1900
DGENRE=Blues
TTITLE0=Buddy Guy - First Time I Met the Blues
TTITLE1=Detroit Jr. - Too Poor
TTITLE2=Lowell Fulson - Blue Shadows
TTITLE3=Lloyd Glenn - The Shakedown
TTITLE4=Elmore James - The Sun Is Shining (alternate)
TTITLE5=Albert King - Calling on My Darling
TTITLE6=Howlin' Wolf - The Red Rooster
TTITLE7=Sonny Boy Williamson - Nine Below Zero
TTITLE8=Howlin' Wolf - Goin' Down Slow
TTITLE9=Little Milton - Satisfied
TTITLE10=Etta James - Something's Got a Hold on Me
TTITLE11=The Big Three Trio - Wrinkles
TTITLE12=Sonny Boy Williamson - Bring It on Home
TTITLE13=Walter Horton - Good Moanin' Blues
TTITLE14=Howlin' Wolf - Killing Floor
TTITLE15=Koko Taylor - What Kind of Man Is That?
TTITLE16=Little Milton - We're Gonna Make It
TTITLE17=Koko Taylor - Wang Dang Doodle
TTITLE18=Little Joe Blue - Dirty Work Goin' On
TTITLE19=John Lee Hooker - One Bourbon, One Scotch, One Beer
TTITLE20=Eddie Burns - Jinglin' Baby
TTITLE21=Muddy Waters - That's Why I Don't Mind
TTITLE22=Buddy Guy - Keep It to Myself
TTITLE23=Hound Dog Taylor - Sitting Here Alone
TTITLE24=Etta James - I'd Rather Go Blind
EXTD=
EXTT0=
EXTT1=
EXTT2=
EXTT3=
EXTT4=
EXTT5=
EXTT6=
EXTT7=
EXTT8=
EXTT9=
EXTT10=
EXTT11=
EXTT12=
EXTT13=
EXTT14=
EXTT15=
EXTT16=
EXTT17=
EXTT18=
EXTT19=
EXTT20=
EXTT21=
EXTT22=
EXTT23=
EXTT24=
PLAYORDER=
